<svg xmlns="http://www.w3.org/2000/svg" viewBox="0 0 100 100">
  <!-- Tmavá fialová Morion plocha s mírně zaoblenými rohy -->
  <rect width="100" height="100" rx="15" fill="#2E1734"/>
  <!-- Bílý wireframe dodekaedr — symbol Morion Light, totožný s Menu -->
  <g transform="translate(15, 12) scale(0.7)" fill="none" stroke="white" stroke-width="3.5" stroke-linejoin="round" stroke-linecap="round">
    <polygon points="50,8 92,38 76,84 24,84 8,38"/>
    <polygon points="50,72 28,58 36,36 64,36 72,58"/>
    <line x1="50" y1="8" x2="36" y2="36"/>
    <line x1="50" y1="8" x2="64" y2="36"/>
    <line x1="92" y1="38" x2="64" y2="36"/>
    <line x1="92" y1="38" x2="72" y2="58"/>
    <line x1="76" y1="84" x2="72" y2="58"/>
    <line x1="76" y1="84" x2="50" y2="72"/>
    <line x1="24" y1="84" x2="50" y2="72"/>
    <line x1="24" y1="84" x2="28" y2="58"/>
    <line x1="8" y1="38" x2="28" y2="58"/>
    <line x1="8" y1="38" x2="36" y2="36"/>
  </g>
</svg>
